<?xml version="1.0" encoding="UTF-8"?>
<svg version="1.1" viewBox="0 0 1600 1600" width="100" height="100" xmlns="http://www.w3.org/2000/svg">
<path transform="translate(0)" d="m0 0h1600v1600h-1600z" fill="#FDFDFD"/>
<path transform="translate(1043,553)" d="m0 0h68l205 1 37 1 13 2 9 6 6 12 2 13 2 35 2 78v72l-1 29-2 22-3 10-7 10-11 7-14 3-9 1-132 1 8 16 7 11 10 14 7 9 8 9 15 6 20 7 5 4-2 4-4 2-31 1-57 1h-84l-73-1-4-4 2-7 6-4 11-3 12-2 11-6 9-8 12-17 8-16 5-13v-2l-9-1h-111l-20-2-11-3-9-6-6-9-3-10-1-7-1-20v-208l2-14 3-8 8-9 6-3 12-2 11-1z" fill="#FEFEFE"/>
<path transform="translate(196,544)" d="m0 0h220l1 1 1 35 1 94v178l-1 107-2 13-8 36-11 33-13 23-14 17-9 9-8 7-15 11-19 11-17 8-21 7-26 6-14 2h-45l-28-3-23-4-23-7-23-10-21-11-18-12-12-9-15-13-10-10-8-7-7-6 2-4 4-5 9-14 16-27 16-24 10-14 9-14 9 6 13 11 9 8 18 13 15 9 18 8 24 7 6 1h23l18-4 12-6 8-7 8-13 4-11 2-13 1-15v-274l-5-1-156-1-39-1v-119l1-1z" fill="#2D472E"/>
<path transform="translate(529,544)" d="m0 0h9l4 1 10 21 14 31 28 63 9 20 13 29 24 52 5 13 5 9 5 6v2h3l3-9 11-26 12-25 13-28 14-30 20-45 17-37 7-16 8-16 7-13 1-1h115l1 1v299l-1 116-1 6-2 1h-83l-9-1-1-128v-73l1-39v-22l-3-1-3 9-16 32-6 15-11 25-5 13-7 15-9 23-6 12-12 28-10 23-6 12-8 13-5 2h-56l-7-2-7-10-8-18-7-17-9-19-10-24-20-46-14-32-10-23-16-32-2 1 2 18 1 22v73l-1 105-1 46-9 1h-70l-12-1-1-1-1-9v-406l1-7h28z" fill="#2D482E"/>
<path transform="translate(1043,553)" d="m0 0h68l205 1 37 1 13 2 9 6 6 12 2 13 2 35 2 78v72l-1 29-2 22-3 10-7 10-11 7-14 3-9 1-132 1 8 16 7 11 10 14 7 9 8 9 15 6 20 7 5 4-2 4-4 2-31 1-57 1h-84l-73-1-4-4 2-7 6-4 11-3 12-2 11-6 9-8 12-17 8-16 5-13v-2l-9-1h-111l-20-2-11-3-9-6-6-9-3-10-1-7-1-20v-208l2-14 3-8 8-9 6-3 12-2 11-1zm272 21-131 1h-155l-53 1-9 2-7 5-1 4-1 18v155l4 16h2l-1 7 1 9 1 5-4 1-3 12 2 15 4 6 2 1 9 1h178l3-2v-32h9l-1 6v12l1 12 2 4 3 1h38l96-1 51-1 5-2 2-2v-27l-3-3-9-1h-50v-1l-44-1 3-3 9-1h3v-2l5 1 6-2 8-1 1-1h10l9-2 7 1 5-1 17-1 7-1 5-1 9-3 3-5v-75l-1-5-1-94-1-17-2-5-4-2z" fill="#257725"/>
<path transform="translate(960,583)" d="m0 0 2 1-1 7-1 27v82l1 56 1 12 4 2 27 1 66 1h115l172 1 15-1 1-74h1v75l-3 5-9 3-8 1-6 1-19 1-2 1-7-1-8 2h-10l-5 1-7 2-5 1-3-1v2h-9l-3 1-2 3 43 1v1h50l9 1 3 3v27l-3 3-4 1-51 1-96 1h-38l-4-2-1-3-1-12v-12l1-6h-9v32l-3 2h-178l-9-1-5-5-2-6-1-12 3-11 4-1-1-11-1-8 1-2h-2l-4-16v-155l1-18z" fill="#5D9A4F"/>
<path transform="translate(964 1e3)" d="m0 0h22l12 3 10 6 5 5 7 8 6 13 4 16v15l-4 16-4 9-4 6-7 7-12 8-12 4-6 1h-15l-12-3-9-5-10-9-3-3v39l1 28v15l-4 1-13-2-2-1v-157l-1-7v-8l2-3h9l4 5 2 5h2l2-5 4 1-3 3h-2v6l8-6 9-7 7-3z" fill="#1E2828"/>
<path transform="translate(1325 1e3)" d="m0 0h16l14 3 11 6 13 13 8 14 3 11v15l-5 7-4-3h-21l-16 2h-49l1 8 4 8 5 5 8 6 10 3h16l15-4 23-11 5-3h2v-2h2l-1 8-4 8-7 8-10 7-8 4-14 4-12 1-14-2-12-5-8-6-5-5-6-7-7-12-4-12v-23l5-12 7-12 7-8 10-7 8-4z" fill="#151919"/>
<path transform="translate(770 1e3)" d="m0 0 9 1 8 4 10 9 8 8 13-13 6-4 6-2 9-1h12l10 3 5 5 6 9 4 10 2 16 1 18 1 38v17h-14l-3-1-1-39-2-37-2-12-4-7-10-3h-7l-10 3-11 8-6 7-1 3v19l1 50-1 7-2 1h-16l-2-76-2-12-4-6-8-3h-8l-14 3-6 4-3 6-4 2-3 7-2 18v41l1 15-1 1h-10l-7-2-1-2v-46l1-28v-21l-1-3v-9l3-3 9 1 8 5 4 4 2 5 4-2 10-11 9-4z" fill="#151A19"/>
<path transform="translate(1344,798)" d="m0 0 16 1 2 2v27l-3 3-4 1-51 1-96 1h-38l-4-2-1-3-1-12v-12l3-4 111-2z" fill="#FEFEFE"/>
<path transform="translate(962,799)" d="m0 0 191 1 2 2 1 4v25l-3 2h-178l-9-1-5-5-2-6-1-12 3-9z" fill="#FEFEFE"/>
<path transform="translate(617,1020)" d="m0 0h16l13 4 8 6 7 7 7 14v21l-4 10-8 10-9 7-10 4-5 1h-10l-14-5-10-8-7-8-4-9-1-4v-19l3-10 6-8 10-8z" fill="#FEFEFE"/>
<path transform="translate(618 1e3)" d="m0 0h17l10 2 12 5 12 11 8 11 6 13 2 7v18l-3 12-7 14-8 9-10 7-12 6-13 3h-13l-12-3-12-6-11-9-9-13-4-10-2-11v-17l4-15 6-12 6-7 10-7 11-5zm-1 17-12 5-11 9-6 9-2 8v19l4 11 7 9 8 7 8 4 9 3h10l13-4 9-6 8-9 5-10 1-3v-21l-7-14-10-10-10-5-8-2z" fill="#151919"/>
<path transform="translate(1043,553)" d="m0 0h68l205 1 37 1v1l-78 1h-119l-17 1h-42l4 1h40l42 1 23 1 9 1 4 1 15 2-4 2h-6l-4 1-7-1-5 1h-24l-3 1-3-2v2h-15l-14 1 21 1 108 1v1l37 1v1l-131 1h-155l-53 1-9 1-1-2 1-5h2l-2-10v-2h-9l-5 1 1-2 7-2 19-2z" fill="#398C3F"/>
<path transform="translate(1147,855)" d="m0 0h34l5 2 5 8 11 22 7 11 5 10 3 8-1 5h-21l-31-1h-19l-47 1 6-9 11-14 8-15 8-16 7-10z" fill="#FEFEFE"/>
<path transform="translate(967,1021)" d="m0 0h14l10 3 8 6 7 8 5 12 2 6v15l-4 12-7 9-11 7-10 4-4 1h-9l-10-3-9-7-7-7-6-10-2-7v-22l3-9 9-10 7-4 8-3z" fill="#FEFEFE"/>
<path transform="translate(1067,1006)" d="m0 0h7l7 2 1 3-1 13v37l2 25 4 9 6 5 9 3h8l11-4 9-6 6-9 3-14 2-23v-38l4-3h11l2 2 1 7v18l1 43 2 27v11l-1 1h-16l-11-2-16 6-21 2-9-2-9-6-7-7-5-8-3-10-2-13-1-18v-16l1-34z" fill="#1E2727"/>
<path transform="translate(483 1e3)" d="m0 0h18l12 3 13 7 9 8 7 12 1 3v7h-2v12l-4-4-6-9-5-5-12-9-11-5-5-1h-13l-10 3-11 8-7 9-4 11v9l4 16 6 10 7 7 12 6 3 1h10l12-4 13-7 11-9 8-8h2l2 4 1 9-5 10-12 11-12 7-16 5h-18l-13-4-10-7-10-9-8-13-5-13-2-10v-14l5-14 7-12 7-7 14-9 12-4z" fill="#1D2727"/>
<path transform="translate(1143,774)" d="m0 0h24l8 1-3 1v2l4-1v-2l8-1 8 1 1 1 1-1h143v3l5-1h15v-2l4-1-1 4-9 3-8 1-6 1-19 1-2 1-7-1-8 2h-10l-5 1-7 2-5 1-3-1v2h-9l-3 1-2 3 43 1v1h50l9 1v1l-81 1-111 2-2 1v-4h-9l-1 2-1-2-5-2-59-1-17-1 3-2-2-2h7l6-2 6 1 7-2 4-2 2-2 2-1v-1h5v-4l4-3 1 2 5-1-3-1z" fill="#469236"/>
<path transform="translate(1533 1e3)" d="m0 0h9l12 2 8 4 6 7 3 10-2 10-5-1-13-13-5-3-8-2-11 1-10 5-4 5-1 9 2 4 12 6 35 10 8 6 5 4 5 8 2 7-1 13-6 10-8 8-10 5-12 3h-12l-14-3-12-5-6-5-7-10-2-6v-5l1-1h6l13 8 9 6 10 4h13l13-4 6-4 1-2v-7l-4-8-8-4-29-9-10-5-13-10-3-4-1-3v-11l8-14 6-9 8-4z" fill="#1D2627"/>
<path transform="translate(196,544)" d="m0 0h139l17 1h63l1 3v9l-2 10-3 1-3-7-2-3-3-1v-3l-3-1-1-1h-7v-2l-3 1-5-1-5 1-21 1-9-1-14 1-4-1-6 1-4-1-5 1-4-1-5 1h-11l-3-1h-14l-3 1-10-2-11 2-2-3h-2v2h-7l-5-1-4 1-4-1h-3l-10-1-1 2-8-1h-19l-2 1-6-1h-4l-10 1-6-1-2 1-7-1-5 1-4-1-21 1-3 1-9-1-3 1h-9l-5 1-12 1-2-1v2l-7 1-1 7-1 2 1 5-1 4v10l1 6-1 3v14l1 3v10l-1 13 2 16 3 1v4l-6 1v4l60 1 46 1 1 2 10-1 4-1 4 1 5-1 6 1h2l3-1 1 3 9-1v-2l7 1v1l13 1v1h-179v-119l1-1z" fill="#243E24"/>
<path transform="translate(1217,960)" d="m0 0 8 1 2 3 1 5v28l2 7 4 1 19 2 3 1v11l-3 3-23 1-1 7-1 35v53l-1 1h-14l-3-1-1-31v-60l-1-2-16-2-8-3-5-10 5-3 5-2 24-2-1-8-2-4-1-11v-17l3-2z" fill="#202C29"/>
<path transform="translate(1381,588)" d="m0 0h2l2 35 2 78v72l-1 29-2 22h-1l-1-16h-4v2l-3-1-2-6-2-8-1-15-1-5 1-15v-102l-1-6v-4l-1-12v-12-4-10l2-2-1-2 5-10 5-3z" fill="#3A8D40"/>
<path transform="translate(265,715)" d="m0 0 4 5 3 3v9l1 4-1 4 2 5-1 1v5l2 1v13h-2l2 8v10l-1 7 1 5v4l-1 12 1 4-1 4 1 9 3 12h2v4l2 5v6h2v7h-3l1 6 5 1 1 5-1 5 2 6-2 24-2 13-2 3v4l-3 1-1-7h-2l-1 5 1 4-4 1-2-1 1 16v9l-1 11-1 4v7l-5 6-5 1-3 1-1-3-2 2 1-5 5-14 3-7 1-9v-20l2-58v-27l-1-40z" fill="#213A21"/>
<path transform="translate(1427 1e3)" d="m0 0 10 2 10 4 5-1 10-4 9-1 8 2 4 6v7l-2 3-10 1h-10l-11-1-1-6v-2h-2l-1 4 1 3-3 10-4 22-1 16v48l-1 1h-10l-6-2-1-2-1-30 2-43 1-19-2-11 4-6z" fill="#151A19"/>
<path transform="translate(1325,1020)" d="m0 0h16l11 4 9 6 7 6 5 9 3 9-14 1-56 1-14 1 1-9 5-10 8-7 10-7z" fill="#FEFEFE"/>
<path transform="translate(1212,904)" d="m0 0 3 3 7 11 3 3 1 6-21 2-16 1-14 2h-50l-21 1-6 1-1 3 40 1 63-1 42-1 8-1h36l-1 2-3 1-31 1-57 1h-84l-73-1 2-2 12-1 25-1 10-4 13-14 1 3 45-1h19l31 1h21l-1-6z" fill="#5C9A4F"/>
<path transform="translate(439,1070)" d="m0 0h2v2l2 1 1 6 3 6 3 5 4 5 8-1 5 3 3-1 12 6 3 1h10l12-4 13-7 11-9 8-8h2l2 4 1 9-5 10-12 11-12 7-16 5h-18l-13-4-10-7-10-9-8-13-3-11 1-6z" fill="#161A19"/>
<path transform="translate(789,1034)" d="m0 0h3l4 4v2l5-1 2 3 5 2 1 16 1 50-1 7-2 1h-16z" fill="#1E2727"/>
<path transform="translate(1285,1041)" d="m0 0 2 1 1 5v7h3v-3h2l-1 6 14-2h50l1 8 16 2 5 2v1l-18 1-16 2h-49v8l-4-2-3-3-5 3-2-3-1-8v-19l1-3z" fill="#1F2A28"/>
<path transform="translate(1043,553)" d="m0 0h68l205 1 37 1v1l-78 1h-119l-17 1h-42-4l-11 1-50 1-13-1h-61l-5 1 1-2 7-2 19-2z" fill="#50953F"/>
<path transform="translate(1143,774)" d="m0 0h24l8 1-3 1v2l4-1v-2h6l-1 3h-2v-2h-2l-1 4-13 1h-8l-4 1-3-1-2 4h-2v2l5 2v2l6 2 9 2 5 1v2l-4 3v-2h-9l-1 2-1-2-5-2-59-1-17-1 3-2-2-2h7l6-2 6 1 7-2 4-2 2-2 2-1v-1h5v-4l4-3 1 2 5-1-3-1z" fill="#388C3E"/>
<path transform="translate(1492,1087)" d="m0 0h6l13 8 9 6 10 4h13l13-4 6-3v2l-2 1 2 7-1 4 3 3-8 4-12 3h-12l-14-3-12-5-6-5-7-10-2-6v-5z" fill="#1D2727"/>
<path transform="translate(1533 1e3)" d="m0 0h9l12 2 8 4 6 7 3 10-2 10-5-1-13-13-5-3-8-2-11 1-10 5-3 3-7 2-3 1-3 4h-4l1-6 8-13 4-5 10-4z" fill="#151A19"/>
<path transform="translate(609,1013)" d="m0 0 2 2h5l2 1 10 1 1 3-12 1-12 5-11 9-5 8-2 8v19l3 10h-2l-3-7-2-4h-2l2 8 1 6 3 7 2 4-3-1v-2h-2l-2-5h-2l-2-3-2-4-1 9-2-2-3-10-1-7v-17l4-15 2 3 5-2 1-3 4-3 3-5 1-5 7-2 7-3 6-1z" fill="#1F2928"/>
<path transform="translate(26,1025)" d="m0 0 2 4-1 3h-2l-1 6-3 1-1 6-5 2 3 5 1 4 8 5 5 2 1 3 4 2 1 2 5 3 5 5 3 1 2 3 5 2 1 4 4 4 8 3v3l6 1 6 3 3 3 1 2h6l5 2v2l4 1 10 5 3 1v2l4-1 7 4 13 4 3 1 23 5 5 2v2h6l2 2h-10l-23-4-23-7-23-10-21-11-18-12-12-9-15-13-10-10-8-7-7-6 2-4 4-5 8-12 3-2z" fill="#212E29"/>
<path transform="translate(581,1067)" d="m0 0 3 2 4 9v2l3 1 7 9 10 8 6 3 3 3-5-1-1 3v4l11-2 8-1 1 5v2h-2v3l7-1 1 3h-5v2h-13l-12-3-12-6-11-9-9-13v-7l1-4 2 1 1 2 1 4h2l2 5h2l3 3-5-7-2-8-1-6-1-4z" fill="#141818"/>
<path transform="translate(1225,922)" d="m0 0 8 8 2 1 2 3 2-1v2l4 1-1 1-42 1-67 1-28-1-8-1 1-4 6-1 31-1h41l17-2 26-2h7z" fill="#459137"/>
<path transform="translate(774 1e3)" d="m0 0h6l4 2v2l4 2 10 7 3 3 2 6 3 1v-2h2l1-5 6 2 1-2v2l4 1-3 1-1 2h2l-2 4-6 7-2 6-6-2h-3v-2h-3l-4-4v-2h-4l-3-7-4-4-7-3h-18l-2-2 2-9 5-2h6l1 3 3-1 1-3z" fill="#131517"/>
<path transform="translate(64,658)" d="m0 0h2v2h64l46 1 1 2 10-1 4-1 4 1 5-1 6 1h2l3-1 1 3 9-1v-2l7 1v1l13 1v1h-172l-1-2-3-1z" fill="#1B2325"/>
<path transform="translate(886,546)" d="m0 0h1v299l-1 116-1 6h-1v-297l1-39z" fill="#5E9B50"/>
<path transform="translate(263,671)" d="m0 0h1v135h2l1 53v21l-2 54v17l-1 9-3 7-1-2 2-23z" fill="#46723F"/>
<path transform="translate(647,1098)" d="m0 0 5 1v4h3l1 4 5-4v2h2v-2h3l1-3 4 1-9 8-10 6-14 5h-6v-1h5l-2-2h-6l1-9-19 2-1-6 2-2h2l2-1 6 2h10l13-4z" fill="#1E2827"/>
<path transform="translate(1221,796)" d="m0 0h15l37 1h77l9 1v1l-81 1-111 2-2 1 2-5 2-1z" fill="#5D9A4F"/>
<path transform="translate(1362,698)" d="m0 0h1v75l-6 2v2l-12 1h-8v-3l-7 1h-136l-3 2v-2l-7-1v-2h162l15-1z" fill="#5E9B50"/>
<path transform="translate(986,573)" d="m0 0h35l181 1v1l-18 1h-155l-53 1-9 1 2-3 3-1z" fill="#5E9B50"/>
<path transform="translate(1550,1006)" d="m0 0 7 1 6 4 5 6 3 10-2 10-5-1-13-13-5-4v-4l1-3h3l-7-3 2-2z" fill="#1C2426"/>
<path transform="translate(770 1e3)" d="m0 0 9 1 8 4 10 9 4 4v2l-3-1v-2l-4-2-6-4-4-3v-2l-10-1h-2l-1 4h-4v-3l-10 2-2 9 1 1h18v1l-18 3-8 4-5 8-4 1 1-6v-16l2 2 1 3 4-2 10-11 9-4z" fill="#283A2D"/>
<path transform="translate(1468 1e3)" d="m0 0 9 1 5 5 1 2v7l-2 3-10 1h-10l-11-1-1-4 3-1h5l5-7h4z" fill="#1F2A28"/>
<path transform="translate(1575,1072)" d="m0 0h2l4 11-1 13-6 10-8 8-5-1-1-4v-4l-1-4 3-1 1-5 6-1h4l2-5-1-11-1-4z" fill="#161B1A"/>
<path transform="translate(772,546)" d="m0 0h111l-5 5-7-1-4-1h-31l-8 1-3 1h-33l-7-1-2-2-7-1-1 2z" fill="#1F3323"/>
<path transform="translate(1136,784)" d="m0 0h6v6l-3 3h-17l-12 2h-37l3-2-2-2h7l6-2 6 1 1-1 15-1 10 1v2l16-6z" fill="#479236"/>
<path transform="translate(1178,932)" d="m0 0h22l7 1-4 3-6 1-20 1h-40l-24-2v-2l62-1z" fill="#237623"/>
<path transform="translate(26,1025)" d="m0 0 2 4-1 3h-2l-1 6-3 1-1 6-5 2 3 5 1 4 8 5 5 2 1 3 4 2 1 2 5 3 5 5 3 1 2 3 5 2 1 6-4-2-8-6-7-6v-2h-2l-3-3-8-7-4-1-8-7-7-6 2-4 4-5 8-12 3-2z" fill="#243B27"/>
<path transform="translate(1024,1048)" d="m0 0 1 2 3 1 2 4v15l-4 16-4 9-2 3-3-1-1-5 3-10 3-7v-2h2l-2-12v-9z" fill="#171D1A"/>
<path transform="translate(78,660)" d="m0 0h52l46 1 1 3h-79l-20-3z" fill="#213A21"/>
<path transform="translate(1161,798)" d="m0 0 4 1v18l1 12 1 3 3 2-8-1v-2h-2v3l-3 1-3-2 2-1v-33z" fill="#297A29"/>
<path transform="translate(1243,911)" d="m0 0 9 6 31 11 3 3h-21l-10-2-3-2v-2l-4-2-4-7-2-4z" fill="#499337"/>
<path transform="translate(25,1063)" d="m0 0 4 2 6 5 3 2v2h2l5 5 7 6 5 4 14 6v3l6 1 6 3 3 3 1 2 3 1 1 4-6-1-18-11-18-13-10-9-8-7-6-6z" fill="#1B241F"/>
<path transform="translate(977,853)" d="m0 0 134 1 2 1-1 4-3 4v-6l-9-1h-111l-13-1z" fill="#59994D"/>
<path transform="translate(654,1016)" d="m0 0 7 4 5 6 3 6-1 3-4-2-2-3-1 3h-4l-8-6-8-4-8-2v-3l4-1 10 1z" fill="#1D2727"/>
<path transform="translate(1125,931)" d="m0 0h54l-1 2-7 1h-58v2h14l10 1v2l-32-1-8-1 1-4 6-1z" fill="#489336"/>
<path transform="translate(1432,1029)" d="m0 0 3 2 1 9-1 10v7l2 1 2-3v15l-3-4-1-1-4 8-3-1v-4l1-17-1-3 2-15-1-3z" fill="#1C2527"/>
<path transform="translate(62,550)" d="m0 0h1v12l2 1v99l8 1-4 2h-7z" fill="#283A2D"/>
<path transform="translate(513,1096)" d="m0 0 5 2v2l5-2 1 5-7 4-1 2-7 2-3 3v-2l-5 1-2-2v-4l4-2-1-4z" fill="#1B2325"/>
<path transform="translate(1207,853)" d="m0 0h68l65 1v1l-132 1-1 2-1-4z" fill="#54974B"/>
<path transform="translate(957,661)" d="m0 0h1l1 95h-1l-1-13-2-1v-45z" fill="#388C3E"/>
<path transform="translate(1558,1009)" d="m0 0 4 1 6 7 3 10-2 10-5-1-7-7v-3l4 1v-2l4 1-3-6v-2h-3l-2-8z" fill="#1A211E"/>
<path transform="translate(822,1007)" d="m0 0h2l-2 4-4 6 1 3 10-4h3v5l-10 5-4 3v-2h-2v-4l-7-1 1 2h-2v2h-2v2l-4-1-1-6 4 2 13-13z" fill="#1E2827"/>
<path transform="translate(1250,935)" d="m0 0h36l-1 2-3 1-31 1h-53l2-2 42-1z" fill="#58984D"/>
<path transform="translate(919,1007)" d="m0 0h2l2 7 3 5 1 4-2 5h-4l-2 2-2-5v-4h-2l-1-11h2v-2z" fill="#121316"/>
<path transform="translate(770 1e3)" d="m0 0 9 1 8 4 10 9 4 4v2l-3-1v-2l-4-2-6-4-4-3v-2l-10-1h-2l-1 4h-4v-3l-9 1 2-4z" fill="#202B29"/>
<path transform="translate(1148,780)" d="m0 0 4 1 3-1h20l1 3 3 1-4 1v2h-9v-2l-7 1-4-1-1 3-2 2-3-4-3-3z" fill="#5E9B50"/>
<path transform="translate(1362,698)" d="m0 0h1v75l-6 2v2l-12 1h-8v-3l-3 1v-2l27-2z" fill="#56974C"/>
<path transform="translate(1146,1100)" d="m0 0h2v11l1 2 12 1v1h-16l-11-2-5 1 5-5h2v-2l7-6z" fill="#365734"/>
<path transform="translate(839 1e3)" d="m0 0h12l10 3 5 5-2 1-2-1v-2l-5-1-2-1v-2l-11 1 4 2h2l1 3h-2v2l-7-1-5 1-3-3v-2l5-2h-12l3-2z" fill="#25342C"/>
<path transform="translate(1300,796)" d="m0 0h61l2 2v3l-4-2-9-1h-77v-1z" fill="#2D472E"/>
<path transform="translate(689,724)" d="m0 0h1v5l-5 10-4 10-4 8-3 3h-2l1-6 11-23 2-4h2z" fill="#23312A"/>
<path transform="translate(958,762)" d="m0 0 2 4 2 10h2v7l1 9 1 2-1 3-3 1-2-7v-5l-3-5v-6-3z" fill="#378B3D"/>
<path transform="translate(510,545)" d="m0 0h27l2 1v3l-9-1h-69v-1l37-1z" fill="#223923"/>
<path transform="translate(372,1070)" d="m0 0 2 4-2 5-11 11-8 7h-5l1-2h2l2-4 4-4h2l2-4h2l1-4h2l2-4 2-3h2z" fill="#243D25"/>
<path transform="translate(1151,852)" d="m0 0h14l20 2 4 3 3 7-1 3-5-9-5-2h-34l-9 2-3 3 2-6 5-2z" fill="#4E9448"/>
<path transform="translate(1497,1102)" d="m0 0h2v2l5 1 11 7 9 6 1 2-7-1-12-5-6-5-3-4z" fill="#1A211D"/>
<path transform="translate(561,782)" d="m0 0 4 3 2 7 4 8 2 9v4h-3l-8-19-3-11z" fill="#264025"/>
<path transform="translate(1213,1105)" d="m0 0 2 4 5 1 7-1 1 2v7h-13l-3-1v-5l2-2z" fill="#131517"/>
<path transform="translate(1462,1006)" d="m0 0h7l-3 5-5 2-4 6-8-1v-3l-2-2 12-6z" fill="#1B221E"/>
<path transform="translate(574,820)" d="m0 0 4 1 4 5 4 9v4l2 1 1 3v3l-5-1-10-23z" fill="#274226"/>
<path transform="translate(1067,1006)" d="m0 0h7l7 2 1 3-1 13h-1v-14l-3-1-14-1v67h-1l-1-18v-16l1-34z" fill="#395C36"/>
<path transform="translate(1076,912)" d="m0 0 2 1-10 8-10 10h-3v-3l-2-1 1-4-10 1 4-2 16-3 11-6z" fill="#469144"/>
<path transform="translate(27,1061)" d="m0 0 5 2 1 3 4 2 1 2 5 3 5 5 3 1 2 3 5 2 1 6-4-2-8-6-7-6v-2h-2l-3-3-8-7z" fill="#203721"/>
<path transform="translate(342,1097)" d="m0 0 5 1-2 5-17 11-3 2h-3v-4l6-4v2l5-3h2l1-4 5-5z" fill="#274226"/>
<path transform="translate(530,1021)" d="m0 0 5 1 7 12v6h-4l-5-7v-2l-2-1 2-3h-2z" fill="#181E1B"/>
<path transform="translate(1299,1026)" d="m0 0 5 2 1 5-7 6-3 6h-1l-1-10-1-2h2l1-4z" fill="#202B29"/>
<path transform="translate(190,661)" d="m0 0 5 1 5-1 6 1h2l3-1 1 3 9-1v-2l7 1v1l13 1v1h-49l-4-1v-2z" fill="#213A21"/>
<path transform="translate(1558,1009)" d="m0 0 4 1 6 7 2 5-1 4-1 1h-2l-4-7v-2h-3l-2-8z" fill="#171D1B"/>
<path transform="translate(935,1098)" d="m0 0 4 2v2l5 1v2l3 1 2 6 5 4-6-1-9-7-4-4z" fill="#171C1B"/>
<path transform="translate(942,831)" d="m0 0 2 1 4 8v2l6 2 5 3 10 4 7 1 1 2h-8l-11-3-9-6-6-9z" fill="#385B36"/>
<path transform="translate(62,546)" d="m0 0h34v1l-25 1v3l-5 4-2 7h-1z" fill="#181E20"/>
<path transform="translate(14,1042)" d="m0 0 1 2 1 6 2 4 5 5 3 2-1 3-6-4-9-9-2-1 2-4z" fill="#26372B"/>
<path transform="translate(1246,1011)" d="m0 0 3 1 2 5 3 1-5 2h-10l-1-5 3-3z" fill="#121316"/>
<path transform="translate(775 1e3)" d="m0 0 6 1 9 5 11 11v2l-3-1v-2l-4-2-6-4-4-3v-2l-9-2z" fill="#26382C"/>
<path transform="translate(547,755)" d="m0 0h2v2l3 1 5 11-1 5-3-1-6-13z" fill="#253E25"/>
<path transform="translate(1533 1e3)" d="m0 0h9v1h-8l4 1v4l-9 1-5 1-3-4 4-2v-1z" fill="#23322A"/>
<path transform="translate(1097,934)" d="m0 0 9 1 21 1 10 1v2l-32-1-8-1z" fill="#36873C"/>
<path transform="translate(1246,914)" d="m0 0 14 6 12 4v1h-13l-9-5-4-4z" fill="#5E9B50"/>
<path transform="translate(1079,854)" d="m0 0h32l2 1-1 4-3 4v-6l-9-1h-22z" fill="#59994D"/>
<path transform="translate(770,548)" d="m0 0v3 2h-2l1 6-2 5-5 4-2-1 2-6 6-12z" fill="#202B28"/>
<path transform="translate(263,934)" d="m0 0h2v17l-1 9-3 7-1-2z" fill="#395C36"/>
<path transform="translate(727,1037)" d="m0 0 3 3 1 4-1 2h-2l-1 7-1 4-3 1 1-14 1-3h2l-1-3z" fill="#1B2226"/>
<path transform="translate(36,1006)" d="m0 0 5 1-1 6-5 6-3-4 1-5z" fill="#223923"/>
<path transform="translate(1126,873)" d="m0 0 1 3-8 16-6 10-2 1 2-6 5-9z" fill="#365633"/>
<path transform="translate(852,547)" d="m0 0h29l-1 3-7 1-6-2h-15z" fill="#213A21"/>
<path transform="translate(602,876)" d="m0 0 2 1 5 14-1 3-3-1-3-7-1-8z" fill="#264025"/>
<path transform="translate(1389,1050)" d="m0 0h1v15l-5 7-4-4 4-3 3-6z" fill="#314A33"/>
<path transform="translate(818,1010)" d="m0 0 2 1-11 11 1 2h-2v2h-2v2l-4-1-1-6 4 2z" fill="#314B33"/>
<path transform="translate(539,1075)" d="m0 0h2l2 4-1 4h-8-3z" fill="#385936"/>
<path transform="translate(210,661)" d="m0 0 2 1v2l9-1v-2l7 1v1l13 1v1h-33v-3z" fill="#213A21"/>
<path transform="translate(25,1063)" d="m0 0 4 2 6 5 3 2v2l2 1-1 2-4-2-10-10z" fill="#1C2522"/>
<path transform="translate(720 1e3)" d="m0 0 9 1 8 5 3 2-1 2-3-1v-2h-2v-2h-8l-1-2-6-1z" fill="#2A3F2F"/>
<path transform="translate(667,768)" d="m0 0h2l-2 10-4 9h-1v-8z" fill="#24332B"/>
<path transform="translate(1067,1006)" d="m0 0h7l7 2 1 3-1 13h-1v-14l-3-1-15-1v-1z" fill="#3E6439"/>
<path transform="translate(327,1108)" d="m0 0 1 2 3-2h3l-1 3-8 5h-3v-4z" fill="#253D26"/>
<path transform="translate(1309,775)" d="m0 0h28v2l-12 1-16-2z" fill="#388C3F"/>
<path transform="translate(542,1041)" d="m0 0 1 3h-2v12l-4-4-2-4h2l1-5h4z" fill="#40683B"/>
<path transform="translate(808,1109)" d="m0 0h1v8h-13v-1l7-1 2-4h2z" fill="#151819"/>
<path transform="translate(52,981)" d="m0 0h2l-2 6-5 8h-3l2-6z" fill="#212E29"/>
<path transform="translate(1088,929)" d="m0 0 3 4v2l-5 1h-10l10-5z" fill="#3B8D3D"/>
<path transform="translate(1372,842)" d="m0 0h2v2l-11 7-7 2-4-1 5-2h5v-2l6-3z" fill="#395D35"/>
<path transform="translate(1524,1118)" d="m0 0h8l8 2-1 2-14-1z" fill="#253525"/>
<path transform="translate(558,775)" d="m0 0 3 4-1 5 2 5-1 3-5-11v-5z" fill="#2D4B2C"/>
<path transform="translate(318,1113)" d="m0 0 1 2 3-1 1 3-8 4-4-1 5-5h2z" fill="#2A4829"/>
<path transform="translate(394,1041)" d="m0 0 1 4-6 10h-2l1-5 5-8z" fill="#293C2E"/>
<path transform="translate(942,831)" d="m0 0 2 1 4 8v2l6 2 1 3-5-1-6-8z" fill="#355834"/>
<path transform="translate(82,955)" d="m0 0 5 2 3 3-1 4-8-6z" fill="#213524"/>
<path transform="translate(1291,1051)" d="m0 0h2l-1 6h4l-1 5-4 1z" fill="#345233"/>
<path transform="translate(1298,1013)" d="m0 0 2 1-13 13v-3l6-7z" fill="#273A29"/>
<path transform="translate(19,1038)" d="m0 0 2 1-1 6-5 2-1-3 1-2h2z" fill="#213A21"/>
<path transform="translate(1424,1023)" d="m0 0 2 2v9l-3 4v-9z" fill="#283B2E"/>
<path transform="translate(854 1e3)" d="m0 0 9 3 3 5-4-1v-2l-5-1-3-3z" fill="#2A3F2F"/>
<path transform="translate(1139,854)" d="m0 0h10l-2 2-9 2-3 3 2-6z" fill="#53974B"/>
<path transform="translate(1350,796)" d="m0 0h11l2 2v3l-4-2-9-1z" fill="#304C30"/>
<path transform="translate(534,1082)" d="m0 0 4 2-5 3-8 2 5-5z" fill="#24332B"/>
<path transform="translate(27,1061)" d="m0 0 5 2 1 3 3 1-1 3-4-2-5-6z" fill="#223B22"/>
<path transform="translate(608,1115)" d="m0 0 4 1 5 3-4 1-9-3z" fill="#2C422F"/>
<path transform="translate(1181,854)" d="m0 0 5 1 3 2 3 7-1 3-5-9-5-2z" fill="#53964B"/>
<path transform="translate(190,661)" d="m0 0 5 1 2-1 2 1v3h-7l-4-1v-2z" fill="#203622"/>
<path transform="translate(1362,1054)" d="m0 0h14l-2 2-11 1z" fill="#385738"/>
<path transform="translate(590,1014)" d="m0 0 2 1-12 12v-3l5-6z" fill="#233326"/>
<path transform="translate(544,747)" d="m0 0 3 1 2 4-2 6-2-2z" fill="#294628"/>
<path transform="translate(63,658)" d="m0 0 2 4 8 1-4 2h-6z" fill="#121316"/>
</svg>
